<svg xmlns="http://www.w3.org/2000/svg" viewBox="0 0 1000 500" fill="none" aria-hidden="true">
  <g stroke="white" stroke-width="0.8" opacity="0.35">
    <path d="M120,180 Q140,160 165,175 L190,170 Q210,155 235,165 L255,190 Q270,210 250,225 L220,230 Q195,240 175,225 Z"/>
    <path d="M155,250 Q175,235 200,245 L225,270 Q240,295 215,310 L185,305 Q160,290 155,265 Z"/>
    <path d="M280,120 Q320,100 360,115 L400,130 Q430,145 420,170 L390,185 Q350,195 310,180 L285,155 Z"/>
    <path d="M430,95 Q480,80 530,100 L570,120 Q590,140 575,165 L540,180 Q490,190 450,175 L425,145 Z"/>
    <path d="M500,200 Q540,185 580,200 L620,230 Q640,260 610,285 L560,295 Q510,285 490,255 Z"/>
    <path d="M560,310 Q600,295 640,315 L670,350 Q680,380 650,395 L600,400 Q560,385 545,355 Z"/>
    <path d="M680,140 Q720,125 760,140 L790,165 Q800,190 775,205 L735,215 Q695,205 680,175 Z"/>
    <path d="M760,220 Q800,210 840,230 L870,260 Q880,290 850,305 L810,310 Q770,295 755,265 Z"/>
    <path d="M820,100 Q860,90 900,105 L930,130 Q940,155 915,170 L875,175 Q835,165 820,140 Z"/>
    <path d="M300,320 Q340,305 380,320 L410,350 Q420,375 395,390 L355,395 Q315,380 300,350 Z"/>
    <path d="M450,350 Q490,335 530,350 L560,380 Q570,405 545,420 L505,425 Q465,410 450,380 Z"/>
    <path d="M700,350 Q740,335 780,350 L810,380 Q820,405 795,420 L755,425 Q715,410 700,380 Z"/>
  </g>
</svg>
